# xmcd
#
# Track frame offsets:
#	182
#	28632
#	64540
#	98517
#	129462
#	155312
#	187277
#
# Disc length: 2819 seconds
# Revision: 1
# Processed by: cddbd v1.5.2PL0 Copyright (c) Steve Scherf et al.
# Submitted via: dBpowerAMP V12.0
#
DISCID=530b0107
DTITLE=Duke Ellington and Johny Hodges - Play the Blues Back to Back [dBP-LITE-FLAC@]
DYEAR=1963
DGENRE=Jazz
TTITLE0=Wabash Blues
TTITLE1=Bassin Street Blues
TTITLE2=Beale Street Blues
TTITLE3=Weary Blues
TTITLE4=St. Louis Blues
TTITLE5=Loveless Love
TTITLE6=Royal Garden Blues
EXTD=
EXTT0=
EXTT1=
EXTT2=
EXTT3=
EXTT4=
EXTT5=
EXTT6=
PLAYORDER=
